<svg id="visual" viewBox="0 0 900 600" width="900" height="600" xmlns="http://www.w3.org/2000/svg" xmlns:xlink="http://www.w3.org/1999/xlink" version="1.1"><path d="M0 55L82 127L164 91L245 115L327 139L409 91L491 97L573 115L655 67L736 79L818 49L900 85L900 0L818 0L736 0L655 0L573 0L491 0L409 0L327 0L245 0L164 0L82 0L0 0Z" fill="#00cc8e"></path><path d="M0 283L82 241L164 331L245 217L327 343L409 307L491 193L573 307L655 193L736 181L818 313L900 313L900 83L818 47L736 77L655 65L573 113L491 95L409 89L327 137L245 113L164 89L82 125L0 53Z" fill="#00b98a"></path><path d="M0 475L82 415L164 457L245 445L327 457L409 457L491 463L573 493L655 457L736 403L818 421L900 409L900 311L818 311L736 179L655 191L573 305L491 191L409 305L327 341L245 215L164 329L82 239L0 281Z" fill="#00a784"></path><path d="M0 535L82 475L164 529L245 487L327 547L409 511L491 535L573 541L655 511L736 475L818 505L900 475L900 407L818 419L736 401L655 455L573 491L491 461L409 455L327 455L245 443L164 455L82 413L0 473Z" fill="#00957c"></path><path d="M0 601L82 601L164 601L245 601L327 601L409 601L491 601L573 601L655 601L736 601L818 601L900 601L900 473L818 503L736 473L655 509L573 539L491 533L409 509L327 545L245 485L164 527L82 473L0 533Z" fill="#038373"></path></svg>